# Wavefront OBJ file
# Exported by Maverick Model 3D 1.3.13
# Sun Sep  3 09:44:34 2023

mtllib anotheralien.mtl

# 16 Vertices
v -9.281835 0.340391 10.88
v 8.251448 0.340391 10.88
v -9.169171 16.551718 10.88
v 8.364112 16.551718 10.88
v 8.251448 0.340391 -10.88
v -9.281835 0.340391 -10.88
v 8.364111 16.551718 -10.88
v -9.169172 16.551718 -10.88
v 17.151878 -13.953114 10.88
v 17.151878 6.45447 10.88
v 17.151876 -13.953114 -10.88
v 17.151876 6.45447 -10.88
v -17.935814 -14.084247 10.88
v -17.935814 6.323337 10.88
v -17.935814 -14.084247 -10.88
v -17.935814 6.323337 -10.88

# 84 Texture Coordinates
vt 0.623032 0.504702
vt 0.872046 1.0
vt 0.623032 1.0
vt 0.623032 0.504702
vt 0.872046 0.504702
vt 0.872046 1.0
vt 0.872046 0.504702
vt 0.996853 0.504702
vt 0.996853 1.0
vt 0.996853 1.0
vt 0.872046 1.0
vt 0.872046 0.504702
vt 0.623032 1.0
vt 0.498525 1.0
vt 0.498525 0.504702
vt 0.498525 0.504702
vt 0.623032 0.504702
vt 0.623032 1.0
vt 0.62406 0.237258
vt 0.872422 0.237258
vt 0.625656 0.495575
vt 0.872422 0.237258
vt 0.874018 0.495575
vt 0.625656 0.495575
vt 0.872422 0.237258
vt 0.998499 0.009499
vt 0.998499 0.334682
vt 0.998499 0.334682
vt 0.874018 0.495575
vt 0.872422 0.237258
vt 0.625656 0.495575
vt 0.501475 0.332592
vt 0.501475 0.00741
vt 0.501475 0.00741
vt 0.62406 0.237258
vt 0.625656 0.495575
vt 0.627551 0.237258
vt 0.875914 0.237258
vt 0.625955 0.495575
vt 0.875914 0.237258
vt 0.874318 0.495575
vt 0.625955 0.495575
vt 0.625955 0.495575
vt 0.501475 0.334682
vt 0.501475 0.009499
vt 0.501475 0.009499
vt 0.627551 0.237258
vt 0.625955 0.495575
vt 0.875914 0.237258
vt 0.998499 0.00741
vt 0.998499 0.332592
vt 0.998499 0.332592
vt 0.874318 0.495575
vt 0.875914 0.237258
vt 0.498489 1.0
vt 0.0 0.509178
vt 0.498489 0.509178
vt 0.498489 1.0
vt 0.0 1.0
vt 0.0 0.509178
vt 0.0 0.852951
vt 0.0 0.506024
vt 0.498489 0.506024
vt 0.498489 0.506024
vt 0.498489 0.852951
vt 0.0 0.852951
vt 0.498489 1.0
vt 0.0 0.506024
vt 0.498489 0.506024
vt 0.498489 1.0
vt 0.0 1.0
vt 0.0 0.506024
vt 0.0 0.85518
vt 0.0 0.509198
vt 0.498489 0.509198
vt 0.498489 0.509198
vt 0.498489 0.85518
vt 0.0 0.85518
vt 0.996853 1.0
vt 0.498525 0.504702
vt 0.996853 0.504702
vt 0.996853 1.0
vt 0.498525 1.0
vt 0.498525 0.504702

# 84 Vertex Normals
vn -0.275363 0.96134 0.0
vn 0.273156 0.96197 -0.0
vn -0.550726 0.834686 0.0
vn -0.275363 0.96134 0.0
vn 0.546312 0.837582 -0.0
vn 0.273156 0.96197 -0.0
vn 0.546312 0.837582 -0.0
vn 0.93657 0.350481 -0.0
vn 0.93657 0.350481 -0.0
vn 0.93657 0.350481 -0.0
vn 0.273156 0.96197 -0.0
vn 0.546312 0.837582 -0.0
vn -0.550726 0.834686 0.0
vn -0.93789 0.346932 0.0
vn -0.93789 0.346932 0.0
vn -0.93789 0.346932 0.0
vn -0.275363 0.96134 0.0
vn -0.550726 0.834686 0.0
vn 0.0 -0.0 1.0
vn 0.0 -0.0 1.0
vn 0.0 -0.0 1.0
vn 0.0 -0.0 1.0
vn 0.0 -0.0 1.0
vn 0.0 -0.0 1.0
vn 0.0 -0.0 1.0
vn 0.0 0.0 1.0
vn 0.0 0.0 1.0
vn 0.0 0.0 1.0
vn 0.0 -0.0 1.0
vn 0.0 -0.0 1.0
vn 0.0 -0.0 1.0
vn 0.0 0.0 1.0
vn 0.0 0.0 1.0
vn 0.0 0.0 1.0
vn 0.0 -0.0 1.0
vn 0.0 -0.0 1.0
vn 0.0 0.0 -1.0
vn 0.0 -0.0 -1.0
vn 0.0 0.0 -1.0
vn 0.0 -0.0 -1.0
vn 0.0 -0.0 -1.0
vn 0.0 0.0 -1.0
vn 0.0 0.0 -1.0
vn 0.0 0.0 -1.0
vn 0.0 0.0 -1.0
vn 0.0 0.0 -1.0
vn 0.0 0.0 -1.0
vn 0.0 0.0 -1.0
vn 0.0 -0.0 -1.0
vn 0.0 0.0 -1.0
vn 0.0 0.0 -1.0
vn 0.0 0.0 -1.0
vn 0.0 -0.0 -1.0
vn 0.0 -0.0 -1.0
vn 0.93657 0.350481 -0.0
vn 1.0 0.0 -0.0
vn 1.0 0.0 -0.0
vn 0.93657 0.350481 -0.0
vn 0.93657 0.350481 -0.0
vn 1.0 0.0 -0.0
vn 0.645558 -0.763711 0.0
vn 0.857514 -0.514461 0.0
vn 0.857514 -0.514461 0.0
vn 0.857514 -0.514461 0.0
vn 0.322779 -0.946474 0.0
vn 0.645558 -0.763711 0.0
vn -0.93789 0.346932 0.0
vn -1.0 0.0 0.0
vn -1.0 0.0 0.0
vn -0.93789 0.346932 0.0
vn -0.93789 0.346932 0.0
vn -1.0 0.0 0.0
vn -0.636514 -0.771266 0.0
vn -0.848878 -0.528588 0.0
vn -0.848878 -0.528588 0.0
vn -0.848878 -0.528588 0.0
vn -0.318257 -0.948005 0.0
vn -0.636514 -0.771266 0.0
vn -0.318257 -0.948005 0.0
vn 0.322779 -0.946474 0.0
vn -0.636514 -0.771266 0.0
vn -0.318257 -0.948005 0.0
vn 0.645558 -0.763711 0.0
vn 0.322779 -0.946474 0.0

# top, 6 grouped triangles

usemtl basic
o top
g top

f 3/1/1 7/2/2 8/3/3
f 3/4/4 4/5/5 7/6/6
f 4/7/7 10/8/8 12/9/9
f 12/10/10 7/11/11 4/12/12
f 8/13/13 16/14/14 14/15/15
f 14/16/16 3/17/17 8/18/18
# front, 6 grouped triangles

usemtl basic
o front
g front

f 1/19/19 2/20/20 3/21/21
f 2/22/22 4/23/23 3/24/24
f 2/25/25 9/26/26 10/27/27
f 10/28/28 4/29/29 2/30/30
f 3/31/31 14/32/32 13/33/33
f 13/34/34 1/35/35 3/36/36
# back, 6 grouped triangles

usemtl basic
o back
g back

f 5/37/37 6/38/38 7/39/39
f 6/40/40 8/41/41 7/42/42
f 7/43/43 12/44/44 11/45/45
f 11/46/46 5/47/47 7/48/48
f 6/49/49 15/50/50 16/51/51
f 16/52/52 8/53/53 6/54/54
# left, 4 grouped triangles

usemtl basic
o left
g left

f 12/55/55 9/56/56 11/57/57
f 12/58/58 10/59/59 9/60/60
f 1/61/61 13/62/62 15/63/63
f 15/64/64 6/65/65 1/66/66
# right, 4 grouped triangles

usemtl basic
o right
g right

f 14/67/67 15/68/68 13/69/69
f 14/70/70 16/71/71 15/72/72
f 5/73/73 11/74/74 9/75/75
f 9/76/76 2/77/77 5/78/78
# bottom, 2 grouped triangles

usemtl basic
o bottom
g bottom

f 2/79/79 6/80/80 5/81/81
f 2/82/82 1/83/83 6/84/84
